<svg width="199" height="24" viewBox="0 0 199 24" fill="none" xmlns="http://www.w3.org/2000/svg">
<g clip-path="url(#clip0_805_3335)">
<path d="M23.766 12.2764C23.766 11.4607 23.6999 10.6406 23.5588 9.83807H12.24V14.4591H18.7217C18.4528 15.9494 17.5885 17.2678 16.323 18.1056V21.1039H20.19C22.4608 19.0139 23.766 15.9274 23.766 12.2764Z" fill="#4285F4"/>
<path d="M12.2401 24.0008C15.4766 24.0008 18.2059 22.9382 20.1945 21.1039L16.3276 18.1055C15.2517 18.8375 13.8627 19.252 12.2445 19.252C9.11388 19.252 6.45946 17.1399 5.50705 14.3003H1.5166V17.3912C3.55371 21.4434 7.7029 24.0008 12.2401 24.0008Z" fill="#34A853"/>
<path d="M5.50253 14.3003C4.99987 12.8099 4.99987 11.1961 5.50253 9.70575V6.61481H1.51649C-0.18551 10.0056 -0.18551 14.0004 1.51649 17.3912L5.50253 14.3003Z" fill="#FBBC04"/>
<path d="M12.2401 4.74966C13.9509 4.7232 15.6044 5.36697 16.8434 6.54867L20.2695 3.12262C18.1001 1.0855 15.2208 -0.034466 12.2401 0.000808666C7.7029 0.000808666 3.55371 2.55822 1.5166 6.61481L5.50264 9.70575C6.45064 6.86173 9.10947 4.74966 12.2401 4.74966Z" fill="#EA4335"/>
</g>
<path d="M44.768 18.112C44.032 18.112 43.3707 17.984 42.784 17.728C42.208 17.4613 41.7547 17.0987 41.424 16.64C41.0933 16.1707 40.9227 15.632 40.912 15.024H42.464C42.5173 15.5467 42.7307 15.9893 43.104 16.352C43.488 16.704 44.0427 16.88 44.768 16.88C45.4613 16.88 46.0053 16.7093 46.4 16.368C46.8053 16.016 47.008 15.568 47.008 15.024C47.008 14.5973 46.8907 14.2507 46.656 13.984C46.4213 13.7173 46.128 13.5147 45.776 13.376C45.424 13.2373 44.9493 13.088 44.352 12.928C43.616 12.736 43.024 12.544 42.576 12.352C42.1387 12.16 41.76 11.8613 41.44 11.456C41.1307 11.04 40.976 10.4853 40.976 9.792C40.976 9.184 41.1307 8.64533 41.44 8.176C41.7493 7.70667 42.1813 7.344 42.736 7.088C43.3013 6.832 43.9467 6.704 44.672 6.704C45.7173 6.704 46.5707 6.96533 47.232 7.488C47.904 8.01067 48.2827 8.704 48.368 9.568H46.768C46.7147 9.14133 46.4907 8.768 46.096 8.448C45.7013 8.11733 45.1787 7.952 44.528 7.952C43.92 7.952 43.424 8.112 43.04 8.432C42.656 8.74133 42.464 9.17867 42.464 9.744C42.464 10.1493 42.576 10.48 42.8 10.736C43.0347 10.992 43.3173 11.1893 43.648 11.328C43.9893 11.456 44.464 11.6053 45.072 11.776C45.808 11.9787 46.4 12.1813 46.848 12.384C47.296 12.576 47.68 12.88 48 13.296C48.32 13.7013 48.48 14.256 48.48 14.96C48.48 15.504 48.336 16.016 48.048 16.496C47.76 16.976 47.3333 17.3653 46.768 17.664C46.2027 17.9627 45.536 18.112 44.768 18.112ZM51.3746 7.808C51.0973 7.808 50.8626 7.712 50.6706 7.52C50.4786 7.328 50.3826 7.09333 50.3826 6.816C50.3826 6.53867 50.4786 6.304 50.6706 6.112C50.8626 5.92 51.0973 5.824 51.3746 5.824C51.6413 5.824 51.8653 5.92 52.0466 6.112C52.2386 6.304 52.3346 6.53867 52.3346 6.816C52.3346 7.09333 52.2386 7.328 52.0466 7.52C51.8653 7.712 51.6413 7.808 51.3746 7.808ZM52.0786 9.232V18H50.6226V9.232H52.0786ZM58.1761 9.088C58.9335 9.088 59.5948 9.25333 60.1601 9.584C60.7361 9.91467 61.1628 10.3307 61.4401 10.832V9.232H62.9121V18.192C62.9121 18.992 62.7415 19.7013 62.4001 20.32C62.0588 20.9493 61.5681 21.44 60.9281 21.792C60.2988 22.144 59.5628 22.32 58.7201 22.32C57.5681 22.32 56.6081 22.048 55.8401 21.504C55.0721 20.96 54.6188 20.2187 54.4801 19.28H55.9201C56.0801 19.8133 56.4108 20.24 56.9121 20.56C57.4135 20.8907 58.0161 21.056 58.7201 21.056C59.5201 21.056 60.1708 20.8053 60.6721 20.304C61.1841 19.8027 61.4401 19.0987 61.4401 18.192V16.352C61.1521 16.864 60.7255 17.2907 60.1601 17.632C59.5948 17.9733 58.9335 18.144 58.1761 18.144C57.3975 18.144 56.6881 17.952 56.0481 17.568C55.4188 17.184 54.9228 16.6453 54.5601 15.952C54.1975 15.2587 54.0161 14.4693 54.0161 13.584C54.0161 12.688 54.1975 11.904 54.5601 11.232C54.9228 10.5493 55.4188 10.0213 56.0481 9.648C56.6881 9.27467 57.3975 9.088 58.1761 9.088ZM61.4401 13.6C61.4401 12.9387 61.3068 12.3627 61.0401 11.872C60.7735 11.3813 60.4108 11.008 59.9521 10.752C59.5041 10.4853 59.0081 10.352 58.4641 10.352C57.9201 10.352 57.4241 10.48 56.9761 10.736C56.5281 10.992 56.1708 11.3653 55.9041 11.856C55.6375 12.3467 55.5041 12.9227 55.5041 13.584C55.5041 14.256 55.6375 14.8427 55.9041 15.344C56.1708 15.8347 56.5281 16.2133 56.9761 16.48C57.4241 16.736 57.9201 16.864 58.4641 16.864C59.0081 16.864 59.5041 16.736 59.9521 16.48C60.4108 16.2133 60.7735 15.8347 61.0401 15.344C61.3068 14.8427 61.4401 14.2613 61.4401 13.6ZM69.6446 9.072C70.7113 9.072 71.5753 9.39733 72.2366 10.048C72.898 10.688 73.2286 11.616 73.2286 12.832V18H71.7886V13.04C71.7886 12.1653 71.57 11.4987 71.1326 11.04C70.6953 10.5707 70.098 10.336 69.3406 10.336C68.5726 10.336 67.9593 10.576 67.5006 11.056C67.0526 11.536 66.8286 12.2347 66.8286 13.152V18H65.3726V9.232H66.8286V10.48C67.1166 10.032 67.506 9.68533 67.9966 9.44C68.498 9.19467 69.0473 9.072 69.6446 9.072ZM87.6486 9.232V18H86.1926V16.704C85.9153 17.152 85.526 17.504 85.0246 17.76C84.534 18.0053 83.99 18.128 83.3926 18.128C82.71 18.128 82.0966 17.9893 81.5526 17.712C81.0086 17.424 80.5766 16.9973 80.2566 16.432C79.9473 15.8667 79.7926 15.1787 79.7926 14.368V9.232H81.2326V14.176C81.2326 15.04 81.4513 15.7067 81.8886 16.176C82.326 16.6347 82.9233 16.864 83.6806 16.864C84.4593 16.864 85.0726 16.624 85.5206 16.144C85.9686 15.664 86.1926 14.9653 86.1926 14.048V9.232H87.6486ZM91.563 10.848C91.851 10.3467 92.2777 9.93067 92.843 9.6C93.419 9.25867 94.0857 9.088 94.843 9.088C95.6217 9.088 96.3257 9.27467 96.955 9.648C97.595 10.0213 98.0963 10.5493 98.459 11.232C98.8217 11.904 99.003 12.688 99.003 13.584C99.003 14.4693 98.8217 15.2587 98.459 15.952C98.0963 16.6453 97.595 17.184 96.955 17.568C96.3257 17.952 95.6217 18.144 94.843 18.144C94.0963 18.144 93.435 17.9787 92.859 17.648C92.2937 17.3067 91.8617 16.8853 91.563 16.384V22.16H90.107V9.232H91.563V10.848ZM97.515 13.584C97.515 12.9227 97.3817 12.3467 97.115 11.856C96.8483 11.3653 96.4857 10.992 96.027 10.736C95.579 10.48 95.083 10.352 94.539 10.352C94.0057 10.352 93.5097 10.4853 93.051 10.752C92.603 11.008 92.2403 11.3867 91.963 11.888C91.6963 12.3787 91.563 12.9493 91.563 13.6C91.563 14.2613 91.6963 14.8427 91.963 15.344C92.2403 15.8347 92.603 16.2133 93.051 16.48C93.5097 16.736 94.0057 16.864 94.539 16.864C95.083 16.864 95.579 16.736 96.027 16.48C96.4857 16.2133 96.8483 15.8347 97.115 15.344C97.3817 14.8427 97.515 14.256 97.515 13.584ZM116.865 9.232L114.129 18H112.625L110.513 11.04L108.401 18H106.897L104.145 9.232H105.633L107.649 16.592L109.825 9.232H111.313L113.441 16.608L115.425 9.232H116.865ZM119.062 7.808C118.785 7.808 118.55 7.712 118.358 7.52C118.166 7.328 118.07 7.09333 118.07 6.816C118.07 6.53867 118.166 6.304 118.358 6.112C118.55 5.92 118.785 5.824 119.062 5.824C119.329 5.824 119.553 5.92 119.734 6.112C119.926 6.304 120.022 6.53867 120.022 6.816C120.022 7.09333 119.926 7.328 119.734 7.52C119.553 7.712 119.329 7.808 119.062 7.808ZM119.766 9.232V18H118.31V9.232H119.766ZM124.024 10.432V15.6C124.024 16.0267 124.114 16.3307 124.296 16.512C124.477 16.6827 124.792 16.768 125.24 16.768H126.312V18H125C124.189 18 123.581 17.8133 123.176 17.44C122.77 17.0667 122.568 16.4533 122.568 15.6V10.432H121.432V9.232H122.568V7.024H124.024V9.232H126.312V10.432H124.024ZM132.428 9.072C133.089 9.072 133.686 9.216 134.22 9.504C134.753 9.78133 135.169 10.2027 135.468 10.768C135.777 11.3333 135.932 12.0213 135.932 12.832V18H134.492V13.04C134.492 12.1653 134.273 11.4987 133.836 11.04C133.398 10.5707 132.801 10.336 132.044 10.336C131.276 10.336 130.662 10.576 130.204 11.056C129.756 11.536 129.532 12.2347 129.532 13.152V18H128.076V6.16H129.532V10.48C129.82 10.032 130.214 9.68533 130.716 9.44C131.228 9.19467 131.798 9.072 132.428 9.072ZM151.024 10.08C150.714 9.42933 150.266 8.928 149.68 8.576C149.093 8.21333 148.41 8.032 147.632 8.032C146.853 8.032 146.149 8.21333 145.52 8.576C144.901 8.928 144.41 9.44 144.048 10.112C143.696 10.7733 143.52 11.5413 143.52 12.416C143.52 13.2907 143.696 14.0587 144.048 14.72C144.41 15.3813 144.901 15.8933 145.52 16.256C146.149 16.608 146.853 16.784 147.632 16.784C148.72 16.784 149.616 16.4587 150.32 15.808C151.024 15.1573 151.434 14.2773 151.552 13.168H147.104V11.984H153.104V13.104C153.018 14.0213 152.73 14.864 152.24 15.632C151.749 16.3893 151.104 16.992 150.304 17.44C149.504 17.8773 148.613 18.096 147.632 18.096C146.597 18.096 145.653 17.856 144.8 17.376C143.946 16.8853 143.269 16.208 142.768 15.344C142.277 14.48 142.032 13.504 142.032 12.416C142.032 11.328 142.277 10.352 142.768 9.488C143.269 8.61333 143.946 7.936 144.8 7.456C145.653 6.96533 146.597 6.72 147.632 6.72C148.816 6.72 149.861 7.01333 150.768 7.6C151.685 8.18667 152.352 9.01333 152.768 10.08H151.024ZM158.853 18.144C158.032 18.144 157.285 17.9573 156.613 17.584C155.952 17.2107 155.429 16.6827 155.045 16C154.672 15.3067 154.485 14.5067 154.485 13.6C154.485 12.704 154.677 11.9147 155.061 11.232C155.456 10.5387 155.989 10.0107 156.661 9.648C157.333 9.27467 158.085 9.088 158.917 9.088C159.749 9.088 160.501 9.27467 161.173 9.648C161.845 10.0107 162.373 10.5333 162.757 11.216C163.152 11.8987 163.349 12.6933 163.349 13.6C163.349 14.5067 163.146 15.3067 162.741 16C162.346 16.6827 161.808 17.2107 161.125 17.584C160.442 17.9573 159.685 18.144 158.853 18.144ZM158.853 16.864C159.376 16.864 159.866 16.7413 160.325 16.496C160.784 16.2507 161.152 15.8827 161.429 15.392C161.717 14.9013 161.861 14.304 161.861 13.6C161.861 12.896 161.722 12.2987 161.445 11.808C161.168 11.3173 160.805 10.9547 160.357 10.72C159.909 10.4747 159.424 10.352 158.901 10.352C158.368 10.352 157.877 10.4747 157.429 10.72C156.992 10.9547 156.64 11.3173 156.373 11.808C156.106 12.2987 155.973 12.896 155.973 13.6C155.973 14.3147 156.101 14.9173 156.357 15.408C156.624 15.8987 156.976 16.2667 157.413 16.512C157.85 16.7467 158.33 16.864 158.853 16.864ZM169.087 18.144C168.266 18.144 167.519 17.9573 166.847 17.584C166.186 17.2107 165.663 16.6827 165.279 16C164.906 15.3067 164.719 14.5067 164.719 13.6C164.719 12.704 164.911 11.9147 165.295 11.232C165.69 10.5387 166.223 10.0107 166.895 9.648C167.567 9.27467 168.319 9.088 169.151 9.088C169.983 9.088 170.735 9.27467 171.407 9.648C172.079 10.0107 172.607 10.5333 172.991 11.216C173.386 11.8987 173.583 12.6933 173.583 13.6C173.583 14.5067 173.381 15.3067 172.975 16C172.581 16.6827 172.042 17.2107 171.359 17.584C170.677 17.9573 169.919 18.144 169.087 18.144ZM169.087 16.864C169.61 16.864 170.101 16.7413 170.559 16.496C171.018 16.2507 171.386 15.8827 171.663 15.392C171.951 14.9013 172.095 14.304 172.095 13.6C172.095 12.896 171.957 12.2987 171.679 11.808C171.402 11.3173 171.039 10.9547 170.591 10.72C170.143 10.4747 169.658 10.352 169.135 10.352C168.602 10.352 168.111 10.4747 167.663 10.72C167.226 10.9547 166.874 11.3173 166.607 11.808C166.341 12.2987 166.207 12.896 166.207 13.6C166.207 14.3147 166.335 14.9173 166.591 15.408C166.858 15.8987 167.21 16.2667 167.647 16.512C168.085 16.7467 168.565 16.864 169.087 16.864ZM179.114 9.088C179.871 9.088 180.532 9.25333 181.098 9.584C181.674 9.91467 182.1 10.3307 182.378 10.832V9.232H183.85V18.192C183.85 18.992 183.679 19.7013 183.338 20.32C182.996 20.9493 182.506 21.44 181.866 21.792C181.236 22.144 180.5 22.32 179.658 22.32C178.506 22.32 177.546 22.048 176.778 21.504C176.01 20.96 175.556 20.2187 175.418 19.28H176.858C177.018 19.8133 177.348 20.24 177.85 20.56C178.351 20.8907 178.954 21.056 179.658 21.056C180.458 21.056 181.108 20.8053 181.61 20.304C182.122 19.8027 182.378 19.0987 182.378 18.192V16.352C182.09 16.864 181.663 17.2907 181.098 17.632C180.532 17.9733 179.871 18.144 179.114 18.144C178.335 18.144 177.626 17.952 176.986 17.568C176.356 17.184 175.86 16.6453 175.498 15.952C175.135 15.2587 174.954 14.4693 174.954 13.584C174.954 12.688 175.135 11.904 175.498 11.232C175.86 10.5493 176.356 10.0213 176.986 9.648C177.626 9.27467 178.335 9.088 179.114 9.088ZM182.378 13.6C182.378 12.9387 182.244 12.3627 181.978 11.872C181.711 11.3813 181.348 11.008 180.89 10.752C180.442 10.4853 179.946 10.352 179.402 10.352C178.858 10.352 178.362 10.48 177.914 10.736C177.466 10.992 177.108 11.3653 176.842 11.856C176.575 12.3467 176.442 12.9227 176.442 13.584C176.442 14.256 176.575 14.8427 176.842 15.344C177.108 15.8347 177.466 16.2133 177.914 16.48C178.362 16.736 178.858 16.864 179.402 16.864C179.946 16.864 180.442 16.736 180.89 16.48C181.348 16.2133 181.711 15.8347 181.978 15.344C182.244 14.8427 182.378 14.2613 182.378 13.6ZM187.766 6.16V18H186.31V6.16H187.766ZM198.248 13.28C198.248 13.5573 198.232 13.8507 198.2 14.16H191.192C191.245 15.024 191.538 15.7013 192.072 16.192C192.616 16.672 193.272 16.912 194.04 16.912C194.669 16.912 195.192 16.768 195.608 16.48C196.034 16.1813 196.333 15.7867 196.504 15.296H198.072C197.837 16.1387 197.368 16.8267 196.664 17.36C195.96 17.8827 195.085 18.144 194.04 18.144C193.208 18.144 192.461 17.9573 191.8 17.584C191.149 17.2107 190.637 16.6827 190.264 16C189.89 15.3067 189.704 14.5067 189.704 13.6C189.704 12.6933 189.885 11.8987 190.248 11.216C190.61 10.5333 191.117 10.0107 191.768 9.648C192.429 9.27467 193.186 9.088 194.04 9.088C194.872 9.088 195.608 9.26933 196.248 9.632C196.888 9.99467 197.378 10.496 197.72 11.136C198.072 11.7653 198.248 12.48 198.248 13.28ZM196.744 12.976C196.744 12.4213 196.621 11.9467 196.376 11.552C196.13 11.1467 195.794 10.8427 195.368 10.64C194.952 10.4267 194.488 10.32 193.976 10.32C193.24 10.32 192.61 10.5547 192.088 11.024C191.576 11.4933 191.282 12.144 191.208 12.976H196.744Z" fill="black"/>
<defs>
<clipPath id="clip0_805_3335">
<rect width="24" height="24" fill="white"/>
</clipPath>
</defs>
</svg>
